<svg id="Layer_5" enable-background="new 0 0 64 64" height="512" viewBox="0 0 64 64" width="512" xmlns="http://www.w3.org/2000/svg"><path d="m5.898 63c-2.701 0-4.898-2.197-4.898-4.898 0-1.433.624-2.788 1.711-3.72l9.91-8.494 1.301 1.518-9.91 8.494c-.643.552-1.012 1.354-1.012 2.202 0 1.598 1.3 2.898 2.898 2.898.848 0 1.649-.369 2.2-1.012l8.496-9.91 1.518 1.301-8.495 9.91c-.93 1.087-2.286 1.711-3.719 1.711z"/><path d="m6.707 58.707-1.414-1.414 1.343-1.343 1.414 1.414zm2.758-2.758-1.414-1.414 1.414-1.414 1.414 1.414zm2.828-2.828-1.414-1.414 1.414-1.414 1.414 1.414z"/><path d="m14 5h2v2h-2z"/><path d="m18 5h2v2h-2z"/><path d="m22 5h2v2h-2z"/><path d="m10 1v38h2v-28h49v34h-24v2h26v-46zm2 8v-6h49v6z"/><path d="m47 32h8v4h-8z" fill="#f0bc5e"/><path d="m47 18h8v4h-8z" fill="#f0bc5e"/><path d="m59 43h-16v-12h16zm-14-2h12v-8h-12z"/><path d="m59 29h-16v-12h16zm-14-2h12v-8h-12z"/><path d="m25 46c-3.859 0-7-3.141-7-7h2c0 2.757 2.243 5 5 5z"/><path d="m59 15h-2v-2h2zm-4 0h-2v-2h2zm-4 0h-2v-2h2z"/><path d="m25 54c-8.271 0-15-6.729-15-15s6.729-15 15-15 15 6.729 15 15-6.729 15-15 15zm0-25c-5.514 0-10 4.486-10 10s4.486 10 10 10 10-4.486 10-10-4.486-10-10-10z" fill="#f0bc5e"/><path d="m25 50c-6.065 0-11-4.935-11-11s4.935-11 11-11 11 4.935 11 11-4.935 11-11 11zm0-20c-4.963 0-9 4.037-9 9s4.037 9 9 9 9-4.037 9-9-4.037-9-9-9z"/><path d="m26 14h10v4h-10z" fill="#f0bc5e"/><path d="m14 14h10v4h-10z" fill="#f0bc5e"/><path d="m14 13h10v2h-10z"/><path d="m14 17h10v2h-10z"/><path d="m26 13h10v2h-10z"/><path d="m26 17h10v2h-10z"/></svg>